<svg width="24" height="24" viewBox="0 0 24 24" fill="none" xmlns="http://www.w3.org/2000/svg">
<path d="M17.7338 17.7247C17.3788 18.0796 16.8055 18.0796 16.4505 17.7247L12 13.2833L7.54949 17.7338C7.19454 18.0887 6.62116 18.0887 6.26621 17.7338C5.91126 17.3788 5.91126 16.8055 6.26621 16.4505L10.7167 12L6.26621 7.54949C5.91126 7.19454 5.91126 6.62116 6.26621 6.26621C6.62116 5.91126 7.19454 5.91126 7.54949 6.26621L12 10.7167L16.4505 6.26621C16.8055 5.91126 17.3788 5.91126 17.7338 6.26621C18.0887 6.62116 18.0887 7.19454 17.7338 7.54949L13.2833 12L17.7338 16.4505C18.0796 16.7964 18.0796 17.3788 17.7338 17.7247Z" fill="#9DADC4"/>
</svg>
