<svg width="24" height="24" viewBox="0 0 24 24" fill="none" xmlns="http://www.w3.org/2000/svg">
<path d="M12 15.6977V17C11.4208 16.907 11.0347 16.8915 10.2624 16.8915H4.69307C3.80198 16.8915 3.47525 16.907 3 16.938V15.8372C3.29703 15.5426 3.57921 15.2016 4.08416 14.5194L9.71287 6.81395C9.86139 6.62791 10.0396 6.41085 10.2624 6.14729C9.96535 6.1783 9.56436 6.1938 9.35644 6.1938H5.28713C4.51485 6.1938 4.08416 6.22481 3.56436 6.30233V5C4.06931 5.07752 4.51485 5.10853 5.28713 5.10853H10.0842C10.6931 5.10853 11.1683 5.09302 11.7475 5.06202V6.13178C11.4356 6.44186 11.1535 6.79845 10.6782 7.44961L5.19802 14.9535C4.9901 15.2326 4.79703 15.4651 4.48515 15.8372C4.9901 15.8062 5.27228 15.8062 5.62871 15.8062H10.2624C10.9604 15.8062 11.4505 15.7752 12 15.6977Z" fill="#9DADC4"/>
<path d="M22 20H20.7161C20.6163 19.5263 20.4792 19.0658 20.3296 18.6579L19.6814 16.9605H15.331L14.6828 18.6579C14.4958 19.1579 14.3837 19.5395 14.2964 20H13C13.2493 19.5658 13.3366 19.3684 13.6731 18.4868L16.4654 11.2237C16.7022 10.6053 16.8019 10.3026 16.8643 10H18.1233C18.1731 10.25 18.2355 10.4211 18.5471 11.2237L21.3393 18.4868C21.651 19.2763 21.813 19.6579 22 20ZM19.3823 16.0526L17.7742 11.7105C17.7368 11.6053 17.7368 11.5921 17.5 10.8684C17.4377 11.0658 17.3878 11.2105 17.3629 11.3026C17.2881 11.5132 17.2507 11.6579 17.2258 11.7105L15.6302 16.0526H19.3823Z" fill="#9DADC4"/>
</svg>
