<svg width="24" height="24" viewBox="0 0 24 24" fill="none" xmlns="http://www.w3.org/2000/svg">
<path d="M13.552 16.16H11.904C11.776 15.584 11.6 15.024 11.408 14.528L10.576 12.464H4.992L4.16 14.528C3.92 15.136 3.776 15.6 3.664 16.16H2C2.32 15.632 2.432 15.392 2.864 14.32L6.448 5.488C6.752 4.736 6.88 4.368 6.96 4H8.576C8.64 4.304 8.72 4.512 9.12 5.488L12.704 14.32C13.104 15.28 13.312 15.744 13.552 16.16ZM10.192 11.36L8.128 6.08C8.08 5.952 8.08 5.936 7.776 5.056C7.696 5.296 7.632 5.472 7.6 5.584C7.504 5.84 7.456 6.016 7.424 6.08L5.376 11.36H10.192Z" fill="#9DADC4"/>
<path d="M21.4319 11.32V12.28C21.0319 12.712 20.7599 13.048 20.3599 13.592L16.9199 18.184C16.8879 18.216 16.6479 18.52 16.3119 18.936C17.0959 18.904 17.1439 18.904 17.4159 18.904H19.9439C20.7759 18.904 21.2239 18.872 21.7519 18.792V20.104C21.1759 20.024 20.7599 19.992 19.9439 19.992H16.5519C15.5599 19.992 15.2239 20.008 14.7759 20.04V18.984C15.1279 18.616 15.4479 18.248 15.8639 17.688L19.3839 12.984C19.5599 12.744 19.6719 12.616 19.8639 12.408C19.4319 12.44 19.2879 12.44 19.0639 12.44H16.8879C16.2159 12.44 15.7039 12.472 15.0959 12.552V11.256C15.7199 11.336 16.1839 11.368 16.8879 11.368H19.7359C20.7279 11.368 20.9839 11.368 21.4319 11.32Z" fill="#9DADC4"/>
</svg>
