<svg width="24" height="24" viewBox="0 0 24 24" fill="none" xmlns="http://www.w3.org/2000/svg">
<path d="M14 8.66666V17.3133L11.1933 16.1067L10.6667 15.88L10.14 16.1067L7.33333 17.3133V8.66666H14ZM16.6667 4.66666H9.99333C9.26 4.66666 8.66667 5.26666 8.66667 6H15.3333C16.0667 6 16.6667 6.6 16.6667 7.33333V16L18 16.6667V6C18 5.26666 17.4 4.66666 16.6667 4.66666ZM14 7.33333H7.33333C6.6 7.33333 6 7.93333 6 8.66666V19.3333L10.6667 17.3333L15.3333 19.3333V8.66666C15.3333 7.93333 14.7333 7.33333 14 7.33333Z" fill="#9DADC4"/>
</svg>
