<svg width="24" height="24" viewBox="0 0 24 24" fill="none" xmlns="http://www.w3.org/2000/svg">
<path d="M14.9167 13.6667H14.2584L14.025 13.4417C15.025 12.275 15.5417 10.6833 15.2584 8.99167C14.8667 6.675 12.9334 4.825 10.6 4.54167C7.07503 4.10834 4.10837 7.075 4.5417 10.6C4.82503 12.9333 6.67503 14.8667 8.9917 15.2583C10.6834 15.5417 12.275 15.025 13.4417 14.025L13.6667 14.2583V14.9167L17.2084 18.4583C17.55 18.8 18.1084 18.8 18.45 18.4583C18.7917 18.1167 18.7917 17.5583 18.45 17.2167L14.9167 13.6667ZM9.9167 13.6667C7.8417 13.6667 6.1667 11.9917 6.1667 9.91667C6.1667 7.84167 7.8417 6.16667 9.9167 6.16667C11.9917 6.16667 13.6667 7.84167 13.6667 9.91667C13.6667 11.9917 11.9917 13.6667 9.9167 13.6667Z" fill="#9DADC4"/>
</svg>
