<svg width="24" height="24" viewBox="0 0 24 24" fill="none" xmlns="http://www.w3.org/2000/svg">
<path d="M6.66707 8H5.33374V17.3333C5.33374 18.0667 5.93374 18.6667 6.66707 18.6667H16.0004V17.3333H6.66707V8ZM17.3337 5.33333H9.33374C8.60041 5.33333 8.00041 5.93333 8.00041 6.66667V14.6667C8.00041 15.4 8.60041 16 9.33374 16H17.3337C18.0671 16 18.6671 15.4 18.6671 14.6667V6.66667C18.6671 5.93333 18.0671 5.33333 17.3337 5.33333ZM17.3337 14.6667H9.33374V6.66667H17.3337V14.6667ZM10.6671 10H16.0004V11.3333H10.6671V10ZM10.6671 12H13.3337V13.3333H10.6671V12ZM10.6671 8H16.0004V9.33333H10.6671V8Z" fill="#9DADC4"/>
</svg>
