<svg width="24" height="24" viewBox="0 0 24 24" fill="none" xmlns="http://www.w3.org/2000/svg">
<path d="M15.6665 7C14.3665 7 12.9665 7.26666 11.9998 8C11.0332 7.26666 9.63317 7 8.33317 7C7.3665 7 6.33984 7.14666 5.47984 7.52666C4.99317 7.74666 4.6665 8.22 4.6665 8.76V16.28C4.6665 17.1467 5.47984 17.7867 6.31984 17.5733C6.97317 17.4067 7.6665 17.3333 8.33317 17.3333C9.37317 17.3333 10.4798 17.5067 11.3732 17.9467C11.7732 18.1467 12.2265 18.1467 12.6198 17.9467C13.5132 17.5 14.6198 17.3333 15.6598 17.3333C16.3265 17.3333 17.0198 17.4067 17.6732 17.5733C18.5132 17.7933 19.3265 17.1533 19.3265 16.28V8.76C19.3265 8.22 18.9998 7.74666 18.5132 7.52666C17.6598 7.14666 16.6332 7 15.6665 7ZM17.9998 15.4867C17.9998 15.9067 17.6132 16.2133 17.1998 16.14C16.6998 16.0467 16.1798 16.0067 15.6665 16.0067C14.5332 16.0067 12.8998 16.44 11.9998 17.0067V9.33333C12.8998 8.76666 14.5332 8.33333 15.6665 8.33333C16.2798 8.33333 16.8865 8.39333 17.4665 8.52C17.7732 8.58666 17.9998 8.86 17.9998 9.17333V15.4867Z" fill="#9DADC4"/>
<path d="M13.3201 11.34C13.1067 11.34 12.9134 11.2067 12.8467 10.9933C12.7601 10.7333 12.9067 10.4467 13.1667 10.3667C14.1934 10.0333 15.5201 9.92667 16.7401 10.0667C17.0134 10.1 17.2134 10.3467 17.1801 10.62C17.1467 10.8933 16.9001 11.0933 16.6267 11.06C15.5468 10.9333 14.3667 11.0333 13.4734 11.32C13.4201 11.3267 13.3667 11.34 13.3201 11.34Z" fill="#9DADC4"/>
<path d="M13.3201 13.1133C13.1067 13.1133 12.9134 12.98 12.8467 12.7667C12.7601 12.5067 12.9067 12.22 13.1667 12.14C14.1867 11.8067 15.5201 11.7 16.7401 11.84C17.0134 11.8733 17.2134 12.12 17.1801 12.3933C17.1467 12.6667 16.9001 12.8667 16.6268 12.8333C15.5468 12.7067 14.3667 12.8067 13.4734 13.0933C13.4201 13.1067 13.3667 13.1133 13.3201 13.1133Z" fill="#9DADC4"/>
<path d="M13.3201 14.8867C13.1067 14.8867 12.9134 14.7533 12.8467 14.54C12.7601 14.28 12.9067 13.9933 13.1667 13.9133C14.1867 13.58 15.5201 13.4733 16.7401 13.6133C17.0134 13.6467 17.2134 13.8933 17.1801 14.1667C17.1467 14.44 16.9001 14.6333 16.6267 14.6067C15.5468 14.48 14.3667 14.58 13.4734 14.8667C13.4201 14.88 13.3667 14.8867 13.3201 14.8867Z" fill="#9DADC4"/>
</svg>
